<svg width="84" height="112" viewBox="0 0 84 112" fill="none" xmlns="http://www.w3.org/2000/svg">
<rect y="0.154831" width="84" height="111.691" rx="4" fill="#2F3745"/>
<mask id="mask0_1832_35828" style="mask-type:alpha" maskUnits="userSpaceOnUse" x="0" y="0" width="84" height="112">
<rect y="3.05176e-05" width="84" height="112" rx="4" fill="#2F3745"/>
</mask>
<g mask="url(#mask0_1832_35828)">
<g opacity="0.31">
<mask id="path-3-outside-1_1832_35828" maskUnits="userSpaceOnUse" x="-21.5" y="-46.4074" width="198.21" height="192.526" fill="black">
<rect fill="white" x="-21.5" y="-46.4074" width="198.21" height="192.526"/>
<path fill-rule="evenodd" clip-rule="evenodd" d="M69.9027 -26.3361C72.0517 -25.7594 73.3187 -23.5412 72.7226 -21.399L64.1301 9.48254C63.1478 13.0129 67.0385 15.898 70.1319 13.933L138.67 -29.6066C140.515 -30.779 142.962 -30.2516 144.162 -28.4226L149.017 -21.0236C150.242 -19.1575 149.703 -16.6518 147.82 -15.4557L67.8951 35.3166C65.3756 36.9171 65.4366 40.6141 68.0076 42.1344L147.731 89.2794C149.618 90.3957 150.257 92.8224 149.162 94.7207L144.739 102.39C143.627 104.318 141.155 104.966 139.238 103.833L56.6916 55.0185C54.4259 53.6787 51.5073 54.852 50.8023 57.386L27.8786 139.78C27.2907 141.893 25.1096 143.137 22.99 142.569L14.559 140.307C12.41 139.73 11.1429 137.512 11.7389 135.37L30.702 67.2071C31.6841 63.6767 27.7933 60.7918 24.7001 62.7568L5.85012 74.7317C4.00464 75.9041 1.55831 75.3767 0.358101 73.5477L-4.49676 66.1495C-5.72131 64.2835 -5.18261 61.7778 -3.29973 60.5816L24.6534 42.8231C27.1727 41.2226 27.1117 37.5256 24.5407 36.0053L-5.54174 18.2163C-7.42952 17.1 -8.06787 14.6733 -6.97309 12.775L-2.55013 5.10555C-1.43848 3.17796 1.03415 2.52966 2.95102 3.6632L37.4722 24.0774C39.7378 25.4172 42.6565 24.2439 43.3615 21.71L56.5828 -25.8102C57.1707 -27.9233 59.3519 -29.1673 61.4716 -28.5985L69.9027 -26.3361Z"/>
</mask>
<path fill-rule="evenodd" clip-rule="evenodd" d="M69.9027 -26.3361C72.0517 -25.7594 73.3187 -23.5412 72.7226 -21.399L64.1301 9.48254C63.1478 13.0129 67.0385 15.898 70.1319 13.933L138.67 -29.6066C140.515 -30.779 142.962 -30.2516 144.162 -28.4226L149.017 -21.0236C150.242 -19.1575 149.703 -16.6518 147.82 -15.4557L67.8951 35.3166C65.3756 36.9171 65.4366 40.6141 68.0076 42.1344L147.731 89.2794C149.618 90.3957 150.257 92.8224 149.162 94.7207L144.739 102.39C143.627 104.318 141.155 104.966 139.238 103.833L56.6916 55.0185C54.4259 53.6787 51.5073 54.852 50.8023 57.386L27.8786 139.78C27.2907 141.893 25.1096 143.137 22.99 142.569L14.559 140.307C12.41 139.73 11.1429 137.512 11.7389 135.37L30.702 67.2071C31.6841 63.6767 27.7933 60.7918 24.7001 62.7568L5.85012 74.7317C4.00464 75.9041 1.55831 75.3767 0.358101 73.5477L-4.49676 66.1495C-5.72131 64.2835 -5.18261 61.7778 -3.29973 60.5816L24.6534 42.8231C27.1727 41.2226 27.1117 37.5256 24.5407 36.0053L-5.54174 18.2163C-7.42952 17.1 -8.06787 14.6733 -6.97309 12.775L-2.55013 5.10555C-1.43848 3.17796 1.03415 2.52966 2.95102 3.6632L37.4722 24.0774C39.7378 25.4172 42.6565 24.2439 43.3615 21.71L56.5828 -25.8102C57.1707 -27.9233 59.3519 -29.1673 61.4716 -28.5985L69.9027 -26.3361Z" fill="#222831"/>
<path d="M56.5828 -25.8102L56.1255 -25.9377L56.5828 -25.8102ZM43.3615 21.71L42.9042 21.5825L43.3615 21.71ZM-5.54174 18.2163L-5.30031 17.808L-5.54174 18.2163ZM24.5407 36.0053L24.2993 36.4137L24.5407 36.0053ZM-3.29973 60.5816L-3.55452 60.181L-3.29973 60.5816ZM0.358101 73.5477L0.754912 73.2877L0.358101 73.5477ZM24.7001 62.7568L24.9549 63.1573L24.7001 62.7568ZM14.559 140.307L14.4363 140.765L14.559 140.307ZM11.7389 135.37L12.1962 135.497L11.7389 135.37ZM27.8786 139.78L28.3359 139.908L27.8786 139.78ZM22.99 142.569L22.8672 143.027L22.99 142.569ZM56.6916 55.0185L56.933 54.6101L56.6916 55.0185ZM50.8023 57.386L50.345 57.2585L50.8023 57.386ZM144.739 102.39L145.15 102.627L144.739 102.39ZM139.238 103.833L139.479 103.424L139.238 103.833ZM147.731 89.2794L147.489 89.6877L147.731 89.2794ZM149.162 94.7207L149.573 94.958L149.162 94.7207ZM67.8951 35.3166L67.6403 34.916V34.916L67.8951 35.3166ZM68.0076 42.1344L67.7661 42.5428L68.0076 42.1344ZM149.017 -21.0236L148.62 -20.7635L149.017 -21.0236ZM147.82 -15.4557L148.075 -15.0551L147.82 -15.4557ZM138.67 -29.6066L138.415 -30.0072L138.67 -29.6066ZM144.162 -28.4226L143.765 -28.1625V-28.1625L144.162 -28.4226ZM72.7226 -21.399L73.1799 -21.2715L72.7226 -21.399ZM69.9027 -26.3361L70.0254 -26.7943L69.9027 -26.3361ZM72.7226 -21.399L72.2653 -21.5265L63.6728 9.35506L64.1301 9.48254L64.5874 9.61001L73.1799 -21.2715L72.7226 -21.399ZM70.1319 13.933L70.3866 14.3335L138.925 -29.2061L138.67 -29.6066L138.415 -30.0072L69.8771 13.5324L70.1319 13.933ZM144.162 -28.4226L143.765 -28.1625L148.62 -20.7635L149.017 -21.0236L149.414 -21.2837L144.559 -28.6827L144.162 -28.4226ZM147.82 -15.4557L147.565 -15.8562L67.6403 34.916L67.8951 35.3166L68.1499 35.7171L148.075 -15.0551L147.82 -15.4557ZM68.0076 42.1344L67.7661 42.5428L147.489 89.6877L147.731 89.2794L147.972 88.871L68.249 41.7261L68.0076 42.1344ZM149.162 94.7207L148.751 94.4835L144.328 102.153L144.739 102.39L145.15 102.627L149.573 94.958L149.162 94.7207ZM139.238 103.833L139.479 103.424L56.933 54.6101L56.6916 55.0185L56.4501 55.4268L138.996 104.241L139.238 103.833ZM50.8023 57.386L50.345 57.2585L27.4213 139.653L27.8786 139.78L28.3359 139.908L51.2596 57.5134L50.8023 57.386ZM22.99 142.569L23.1127 142.11L14.6818 139.849L14.559 140.307L14.4363 140.765L22.8672 143.027L22.99 142.569ZM11.7389 135.37L12.1962 135.497L31.1593 67.3345L30.702 67.2071L30.2447 67.0796L11.2816 135.242L11.7389 135.37ZM24.7001 62.7568L24.4453 62.3563L5.59534 74.3311L5.85012 74.7317L6.10491 75.1322L24.9549 63.1573L24.7001 62.7568ZM0.358101 73.5477L0.754912 73.2877L-4.09995 65.8894L-4.49676 66.1495L-4.89358 66.4096L-0.0387113 73.8078L0.358101 73.5477ZM-3.29973 60.5816L-3.04493 60.9821L24.9082 43.2237L24.6534 42.8231L24.3986 42.4226L-3.55452 60.181L-3.29973 60.5816ZM24.5407 36.0053L24.7822 35.597L-5.30031 17.808L-5.54174 18.2163L-5.78317 18.6247L24.2993 36.4137L24.5407 36.0053ZM-6.97309 12.775L-6.56184 13.0122L-2.13888 5.34278L-2.55013 5.10555L-2.96138 4.86832L-7.38434 12.5377L-6.97309 12.775ZM2.95102 3.6632L2.70959 4.07156L37.2308 24.4858L37.4722 24.0774L37.7136 23.6691L3.19245 3.25485L2.95102 3.6632ZM43.3615 21.71L43.8188 21.8374L57.0401 -25.6828L56.5828 -25.8102L56.1255 -25.9377L42.9042 21.5825L43.3615 21.71ZM61.4716 -28.5985L61.3489 -28.1402L69.78 -25.8778L69.9027 -26.3361L70.0254 -26.7943L61.5944 -29.0567L61.4716 -28.5985ZM56.5828 -25.8102L57.0401 -25.6828C57.5583 -27.5451 59.4807 -28.6415 61.3489 -28.1402L61.4716 -28.5985L61.5944 -29.0567C59.2231 -29.693 56.7832 -28.3015 56.1255 -25.9377L56.5828 -25.8102ZM37.4722 24.0774L37.2308 24.4858C39.7652 25.9845 43.0301 24.6721 43.8188 21.8374L43.3615 21.71L42.9042 21.5825C42.2828 23.8158 39.7105 24.8499 37.7136 23.6691L37.4722 24.0774ZM-2.55013 5.10555L-2.13888 5.34278C-1.15912 3.64388 1.02014 3.0725 2.70959 4.07156L2.95102 3.6632L3.19245 3.25485C1.04815 1.98681 -1.71784 2.71203 -2.96138 4.86832L-2.55013 5.10555ZM-5.54174 18.2163L-5.30031 17.808C-6.96412 16.8241 -7.52673 14.6853 -6.56184 13.0122L-6.97309 12.775L-7.38434 12.5377C-8.609 14.6613 -7.89492 17.3759 -5.78317 18.6247L-5.54174 18.2163ZM24.6534 42.8231L24.9082 43.2237C27.7264 41.4332 27.6581 37.2977 24.7822 35.597L24.5407 36.0053L24.2993 36.4137C26.5652 37.7536 26.619 41.012 24.3986 42.4226L24.6534 42.8231ZM-4.49676 66.1495L-4.09995 65.8894C-5.17921 64.2448 -4.70442 62.0364 -3.04493 60.9821L-3.29973 60.5816L-3.55452 60.181C-5.66079 61.5191 -6.2634 64.3221 -4.89358 66.4096L-4.49676 66.1495ZM5.85012 74.7317L5.59534 74.3311C3.96881 75.3644 1.81272 74.8996 0.754912 73.2877L0.358101 73.5477L-0.0387113 73.8078C1.30389 75.8538 4.04046 76.4437 6.10491 75.1322L5.85012 74.7317ZM30.702 67.2071L31.1593 67.3345C32.2579 63.3853 27.9056 60.1581 24.4453 62.3563L24.7001 62.7568L24.9549 63.1573C27.6811 61.4254 31.1103 63.9681 30.2447 67.0796L30.702 67.2071ZM14.559 140.307L14.6818 139.849C12.7877 139.34 11.6709 137.385 12.1962 135.497L11.7389 135.37L11.2816 135.242C10.6149 137.639 12.0323 140.12 14.4363 140.765L14.559 140.307ZM27.8786 139.78L27.4213 139.653C26.9031 141.515 24.9809 142.612 23.1127 142.11L22.99 142.569L22.8672 143.027C25.2384 143.663 27.6782 142.272 28.3359 139.908L27.8786 139.78ZM56.6916 55.0185L56.933 54.6101C54.3986 53.1114 51.1337 54.4238 50.345 57.2585L50.8023 57.386L51.2596 57.5134C51.881 55.2801 54.4533 54.246 56.4501 55.4268L56.6916 55.0185ZM144.739 102.39L144.328 102.153C143.348 103.852 141.169 104.423 139.479 103.424L139.238 103.833L138.996 104.241C141.141 105.509 143.907 104.784 145.15 102.627L144.739 102.39ZM147.731 89.2794L147.489 89.6877C149.153 90.6716 149.716 92.8104 148.751 94.4835L149.162 94.7207L149.573 94.958C150.798 92.8344 150.084 90.1198 147.972 88.871L147.731 89.2794ZM67.8951 35.3166L67.6403 34.916C64.8219 36.7064 64.8902 40.8421 67.7661 42.5428L68.0076 42.1344L68.249 41.7261C65.9831 40.3861 65.9293 37.1277 68.1499 35.7171L67.8951 35.3166ZM149.017 -21.0236L148.62 -20.7635C149.699 -19.1189 149.225 -16.9104 147.565 -15.8562L147.82 -15.4557L148.075 -15.0551C150.181 -16.3932 150.784 -19.1962 149.414 -21.2837L149.017 -21.0236ZM138.67 -29.6066L138.925 -29.2061C140.551 -30.2394 142.707 -29.7745 143.765 -28.1625L144.162 -28.4226L144.559 -28.6827C143.216 -30.7287 140.48 -31.3187 138.415 -30.0072L138.67 -29.6066ZM64.1301 9.48254L63.6728 9.35506C62.5739 13.3043 66.9263 16.5317 70.3866 14.3335L70.1319 13.933L69.8771 13.5324C67.1508 15.2643 63.7216 12.7216 64.5874 9.61001L64.1301 9.48254ZM72.7226 -21.399L73.1799 -21.2715C73.8467 -23.6679 72.4294 -26.1493 70.0254 -26.7943L69.9027 -26.3361L69.78 -25.8778C71.674 -25.3695 72.7906 -23.4145 72.2653 -21.5265L72.7226 -21.399Z" fill="#222831" mask="url(#path-3-outside-1_1832_35828)"/>
</g>
</g>
</svg>
